<svg width="1024" height="1024" viewBox="0 0 1024 1024" fill="none" xmlns="http://www.w3.org/2000/svg">
  <rect width="1024" height="1024" fill="url(#base)" />
  <circle cx="344" cy="372" r="312" fill="#6F20ED" fill-opacity="0.42" />
  <circle cx="634" cy="350" r="300" fill="#7B2CF3" fill-opacity="0.42" />
  <circle cx="308" cy="650" r="290" fill="#5010C8" fill-opacity="0.36" />
  <circle cx="712" cy="650" r="292" fill="#5D1AD8" fill-opacity="0.34" />
  <circle cx="512" cy="512" r="390" fill="#4110B8" fill-opacity="0.24" />
  <circle cx="512" cy="512" r="284" fill="url(#centerGlow)" fill-opacity="0.72" />
  <path
    d="M513 272C655 272 770 367 770 485C770 603 655 698 513 698C462 698 414 686 374 664L250 704L292 590C269 558 256 522 256 485C256 367 371 272 513 272Z"
    fill="url(#bubbleFill)"
    stroke="white"
    stroke-width="58"
    stroke-linejoin="round"
  />
  <defs>
    <linearGradient id="base" x1="96" y1="78" x2="900" y2="930" gradientUnits="userSpaceOnUse">
      <stop stop-color="#BE61FF" />
      <stop offset="0.46" stop-color="#7A24F2" />
      <stop offset="1" stop-color="#8E45F7" />
    </linearGradient>
    <radialGradient id="centerGlow" cx="0" cy="0" r="1" gradientUnits="userSpaceOnUse" gradientTransform="translate(512 480) rotate(90) scale(356)">
      <stop stop-color="#8F35FF" />
      <stop offset="1" stop-color="#3E0FAE" />
    </radialGradient>
    <linearGradient id="bubbleFill" x1="388" y1="306" x2="664" y2="684" gradientUnits="userSpaceOnUse">
      <stop stop-color="#781EFF" />
      <stop offset="1" stop-color="#3D0DCA" />
    </linearGradient>
  </defs>
</svg>
